<svg viewBox="0 0 200 200" xmlns="http://www.w3.org/2000/svg">
  <!-- Outer circle with arrow -->
  <path d="M100 20 
           C141.421 20 175 53.579 175 95
           C175 136.421 141.421 170 100 170
           C58.579 170 25 136.421 25 95
           C25 53.579 58.579 20 100 20 Z
           M100 35
           C66.863 35 40 61.863 40 95
           C40 128.137 66.863 155 100 155
           C133.137 155 160 128.137 160 95
           C160 61.863 133.137 35 100 35 Z" 
        fill="#1E9BDA" 
        stroke="none"/>
  
  <!-- Inner teardrop/arrow shape -->
  <path d="M100 45
           C115 45 127 57 127 72
           C127 87 115 99 100 99
           C85 99 73 87 73 72
           C73 57 85 45 100 45 Z
           M100 75
           L85 95
           L100 130
           L115 95
           Z"
        fill="#1E9BDA" 
        stroke="none"/>
  
  <!-- Arrow pointing up -->
  <path d="M85 60 L100 45 L115 60 L108 60 L108 85 L92 85 L92 60 Z" 
        fill="white" 
        stroke="none"/>
</svg>